# xmcd
#
# Track frame offsets:
#	150
#	22950
#	43275
#	55350
#	72600
#	92775
#	125250
#	141675
#	157575
#	175125
#	192975
#	204600
#	226425
#	242475
#	264525
#
# Disc length: 3721 seconds
#
# Revision: 0
# Processed by: cddbd v1.5.2PL0 Copyright (c) Steve Scherf et al.
# Submitted via: EasyCDDAExtractor 16.0.6.1
#
DISCID=da0e870f
DTITLE=Χορ. Εθν. Εκκλησ. μουσικής - Μουσική των Ελλήνων 2
DYEAR=1900
DGENRE=Ποικίλη
TTITLE0=Θεοτόκε Παρθένε [αργοσύντομος δρόμ., μελ. υπό Αβραάμ Ευθυμιάδη]
TTITLE1=Της μετανοίας-Τα πλήθη [ήχ. β' μαλακός χρωμ/κός, Π. Φωκαέα]
TTITLE2=Μεγαλυνάρια της θ' ωδής εις την β' Φεβρ.-Θ' ωδή [ήχος έσω γ']
TTITLE3=Μη της φθοράς [ήχ. βαρύς, θ' ωδή εκ αναστασ. καταβασιών Χ. Χαρτοφύλακο
TTITLE3=ς]
TTITLE4=Εκλογή [εκ της αργής δοξολογίας Γ. Βιολάκη, πλάγιος α' πεντάφωνος]
TTITLE5=Λειτουργικά και Άξιον Εστί [ήχος α' επτάφ/ος έσω κ αργοσύν/μο, Θ. Βασι
TTITLE5=λείου]
TTITLE6=Ροήν μου των δακρύων [ήχος πλάγιος δ', επιφώνημα Γ. Κρητός]
TTITLE7=Σαν τα μάρμαρα της Πόλης [ήχ. α' επτάφωνος, κ/φή Θ. Βασιλείου, αντικ/ό
TTITLE7=ς ΚΠολης]
TTITLE8=Ελένη-Ήλθανε κυρά μου (γύρισμα) [ήχ. β' μαλ. χρ/ός, συρτ. ΚΠολης, κ/φή
TTITLE8=Σ.Καράς]
TTITLE9=Ένα καράβι από τη Χιό [ήχος έσω γ', συρτός Μ. Ασίας, κ/φή Σ. Καράς]
TTITLE10=Το καραβάκι πού 'ρχεται [ήχος δ' άγια, συρτός Προποντίδας, κ/φή Σ. Κα
TTITLE10=ράς]
TTITLE11=Στο είπα και στο ξαναλέω [ήχ. πλάγ. α' πεν/ος, καθ/κό Μ. Ασίας, κ/φή 
TTITLE11=Σ. Καράς]
TTITLE12=Έχε γεια Παναγιά [ήχ. πλάγιος β', κασάπικος πολίτικος, κ/φή Θ. Βασιλε
TTITLE12=ίου]
TTITLE13=Βαρύτερ' απ' τα σίδερα [ήχ. βαρύς τετρά/ος, καθιστικό Κων/εως, κ/φή Σ
TTITLE13=Καράς]
TTITLE14=Αλατσατιανή [ήχ. πλάγιος δ' επτά/ος, αντικρ/ός Ιωνικών παραλ., κ/φή Θ
TTITLE14=Βασιλείου]
EXTD=
EXTT0=
EXTT1=
EXTT2=
EXTT3=
EXTT4=
EXTT5=
EXTT6=
EXTT7=
EXTT8=
EXTT9=
EXTT10=
EXTT11=
EXTT12=
EXTT13=
EXTT14=
PLAYORDER=
